<svg width="708" height="586" viewBox="0 0 708 586" fill="none" xmlns="http://www.w3.org/2000/svg">
<rect width="540" height="28" rx="14" fill="#E3E2E0" fill-opacity="0.5"/>
<rect y="79" width="120" height="22" rx="11" fill="#E3E2E0" fill-opacity="0.5"/>
<rect y="124" width="708" height="16" rx="8" fill="#E3E2E0" fill-opacity="0.5"/>
<rect y="150" width="708" height="16" rx="8" fill="#E3E2E0" fill-opacity="0.5"/>
<rect y="176" width="676" height="16" rx="8" fill="#E3E2E0" fill-opacity="0.5"/>
<rect y="202" width="676" height="16" rx="8" fill="#E3E2E0" fill-opacity="0.5"/>
<rect y="228" width="644" height="16" rx="8" fill="#E3E2E0" fill-opacity="0.5"/>
<rect y="254" width="708" height="16" rx="8" fill="#E3E2E0" fill-opacity="0.5"/>
<rect y="304" width="112" height="22" rx="11" fill="#E3E2E0" fill-opacity="0.5"/>
<rect y="347" width="708" height="16" rx="8" fill="#E3E2E0" fill-opacity="0.5"/>
<rect y="373" width="708" height="16" rx="8" fill="#E3E2E0" fill-opacity="0.5"/>
<rect y="399" width="708" height="16" rx="8" fill="#E3E2E0" fill-opacity="0.5"/>
<rect y="425" width="692" height="16" rx="8" fill="#E3E2E0" fill-opacity="0.5"/>
<rect y="451" width="692" height="16" rx="8" fill="#E3E2E0" fill-opacity="0.5"/>
<rect y="477" width="692" height="16" rx="8" fill="#E3E2E0" fill-opacity="0.5"/>
<rect y="503" width="708" height="16" rx="8" fill="#E3E2E0" fill-opacity="0.5"/>
<rect y="529" width="708" height="16" rx="8" fill="#E3E2E0" fill-opacity="0.5"/>
</svg>
